<svg width="154" height="170" viewBox="0 0 154 170" fill="none" xmlns="http://www.w3.org/2000/svg">
<g style="mix-blend-mode:luminosity" opacity="0.5">
<mask id="mask0_22424_9165" style="mask-type:luminance" maskUnits="userSpaceOnUse" x="0" y="0" width="154" height="170">
<path d="M0 0H153.716V170H0V0Z" fill="white"/>
</mask>
<g mask="url(#mask0_22424_9165)">
<path d="M151.172 115.947C146.268 103.107 140.435 90.5463 134.834 78.0149C132.432 72.6385 130.242 67.1884 127.782 61.836C126.969 60.0629 126.094 58.3175 125.29 56.5426C125.173 56.2862 125.059 56.0242 124.939 55.764C125.208 55.6312 125.472 55.5002 125.472 55.5002L125.022 54.5076L125.002 54.5186L119.159 41.4153H119.161L119.079 41.2363L118.718 40.4264L118.708 40.4301V40.4282C118.708 40.4282 118.105 40.6902 117.906 40.7769C116.319 41.4614 114.692 42.0094 113.138 42.598C108.363 44.4079 103.528 46.1385 99 48.5315C95.4723 50.3987 91.7196 51.7954 88.1273 53.5205C76.5904 59.0648 64.9446 64.2677 53.1937 69.3544C49.0018 71.1681 44.7915 72.8784 40.6052 74.6902C37.6771 75.9577 34.8653 77.6644 31.8764 78.7659C29.4668 79.6533 27.1402 80.9411 24.8155 82.0389C24.0148 82.4171 23.0886 82.7603 22.3911 83.3175L22.3303 83.3655L21.1863 80.705C26.5756 76.0869 31.655 71.0721 37.0535 66.4522C42.7362 61.5943 48.5185 56.8913 54.2841 52.1404C57.1679 49.7659 59.8432 47.1238 62.655 44.6607L64.2565 43.2991C64.5978 43.0168 64.9391 42.7345 65.286 42.4596C70.2565 38.5352 75.6568 34.8083 80.3469 30.5592C85.8875 25.5371 91.7472 20.6791 97.5609 15.9743C98.9446 14.8544 100.301 13.7068 101.679 12.5795C102.063 12.2659 102.897 11.4633 102.897 11.4633L102.216 10.7363L102.208 10.7437L100.863 9.30829L92.9594 0.869177L92.9631 0.865487L92.238 0.0942688C92.238 0.0942688 91.9834 0.372867 91.8911 0.450357C90.9557 1.21973 89.8948 1.83597 88.917 2.55183C84.6974 5.63486 80.6365 9.39316 76.7528 12.8876C71.9391 17.2197 66.7269 21.2548 61.69 25.3452C52.0258 33.1939 42.4299 41.1053 33.024 49.2603C25.7528 55.5648 17.8247 61.0149 10.6236 67.3784C8.30074 69.4301 6.06089 71.5555 3.70111 73.5611C2.94834 74.1976 2.24539 74.9227 1.41697 75.4614C1.14391 75.6404 0.869004 75.8692 0.583026 76.0278C0.516606 76.0555 0 76.3969 0 76.3969L0.625461 77.2695H0.627306L1.28967 78.2068C1.19188 78.2861 1.131 78.3876 1.10886 78.5112C1.08487 78.6367 1.10517 78.7529 1.16974 78.8618C1.85424 80.0389 2.84133 81.1053 3.65129 82.1994C5.61624 84.86 7.58487 87.5131 9.55904 90.1552C9.62731 90.2474 9.71587 90.3083 9.82472 90.3397L10.155 91.2179C10.1384 91.2253 10.1218 91.2326 10.1052 91.2419C10.0461 91.2732 9.99446 91.3157 9.95018 91.3673C9.90775 91.4208 9.87638 91.4799 9.85609 91.5445C9.83579 91.6109 9.82841 91.6773 9.83579 91.7437C9.84133 91.812 9.86162 91.8766 9.89299 91.9356C11.0018 94.0149 11.7269 96.3433 12.5369 98.55C12.703 99.0002 12.8598 99.8083 13.0849 100.508C13.2196 101.004 13.452 101.449 13.7823 101.843C13.8339 101.895 13.8948 101.934 13.9649 101.961C14.0055 102.017 14.0554 102.063 14.1162 102.1C14.3284 102.207 14.5461 102.223 14.7712 102.148C14.9465 102.094 15.1144 102.026 15.2768 101.945L17.0332 106.061C17.0166 106.085 17.0018 106.109 16.9908 106.135C16.9428 106.255 16.9262 106.378 16.941 106.508C16.9926 106.832 17.0849 107.142 17.2196 107.441C17.4631 107.926 17.6513 108.441 17.8598 108.941C18.4649 110.402 19.1199 111.832 19.7583 113.279C21.6845 117.642 23.524 122.043 25.5129 126.378C29.5148 135.105 32.5683 144.26 36.5387 152.993C38.3358 156.943 39.4373 161.832 42.2731 165.234C42.3801 165.362 42.5185 165.423 42.6845 165.417C42.9631 165.989 43.2934 166.53 43.6753 167.039C43.7528 167.139 44.0221 167.513 44.3026 167.86C44.2601 167.941 44.2435 168.026 44.2509 168.118C44.2583 168.251 44.3081 168.364 44.4041 168.456C44.5424 168.629 44.7011 168.779 44.8819 168.906C45.2601 169.091 45.6384 169.277 46.0148 169.461C47.0037 169.943 48.2196 169.786 49.3044 169.777C52.4945 169.747 55.4797 167.937 58.428 166.925C58.5037 166.901 58.5683 166.86 58.6255 166.805C58.6808 166.749 58.7232 166.685 58.7491 166.609C58.7749 166.535 58.7823 166.458 58.7731 166.38C58.762 166.301 58.7362 166.229 58.6919 166.163C59.1863 165.956 59.679 165.749 60.1716 165.539C60.2399 165.655 60.3395 165.733 60.4705 165.77C60.6015 165.806 60.7269 165.795 60.8469 165.733C64.6771 163.751 68.9613 162.699 73.0517 161.342C79.024 159.362 84.7546 156.663 90.7066 154.613C95.6993 152.891 100.419 150.316 105.312 148.358C110.441 146.305 115.756 144.845 120.887 142.792C127.234 140.253 133.445 137.485 139.904 135.225C139.969 135.203 140.026 135.17 140.077 135.124C140.127 135.078 140.168 135.024 140.197 134.963C140.227 134.902 140.244 134.838 140.247 134.77C140.251 134.701 140.242 134.635 140.22 134.57C140.192 134.491 140.146 134.423 140.083 134.365L141.493 133.775C143.756 132.827 145.958 131.729 148.194 130.727C148.875 130.421 149.552 130.166 150.24 129.884C150.596 129.74 151.301 128.949 151.249 129.329C155.513 126.897 152.476 119.365 151.172 115.947Z" fill="#456188"/>
</g>
<path fill-rule="evenodd" clip-rule="evenodd" d="M14.8604 100.51C14.9214 100.559 15.7247 100.036 16.0226 99.8971C17.2756 99.3134 18.5526 98.7517 19.7649 98.0885C24.8212 95.321 30.3642 93.8154 35.5223 91.338C45.9791 86.3111 56.7839 81.783 67.4961 77.3252C70.685 75.9987 74.0719 75.2043 77.257 73.8612C85.2394 70.4989 92.9571 66.4881 100.943 63.1443C106.891 60.6558 112.923 58.3317 118.812 55.7157C120.198 55.1005 121.64 54.6368 123.021 54.0013C123.191 53.9237 124.252 53.6189 124.272 53.4212C124.3 53.1293 124.568 53.9237 124.724 54.1731C125.055 54.7421 125.345 55.3315 125.597 55.9411C126.404 57.7202 127.281 59.466 128.098 61.2414C130.565 66.6008 132.761 72.06 135.171 77.4434C140.79 89.9912 146.64 102.569 151.56 115.425C152.868 118.85 155.916 126.389 151.636 128.826C151.687 128.446 150.98 129.238 150.625 129.382C149.933 129.665 149.254 129.92 148.571 130.227C146.328 131.23 144.12 132.331 141.849 133.278C135.001 136.144 128.197 138.965 121.276 141.597C114.48 144.182 107.632 146.665 100.817 149.24C95.8794 151.108 91.1563 153.515 86.1796 155.283C80.2442 157.391 74.268 159.416 68.3845 161.675C63.7279 163.462 59.2991 165.673 54.6 167.343C51.35 168.498 48.4147 169.448 45.0852 168.095C45.0852 168.068 45.0741 168.082 45.0593 168.062C44.865 168.149 43.8877 166.791 43.7304 166.584C42.3997 164.859 41.9315 162.688 40.6952 160.951" fill="#456188"/>
<mask id="mask1_22424_9165" style="mask-type:luminance" maskUnits="userSpaceOnUse" x="0" y="4" width="136" height="138">
<path d="M0 4.68634H135.295V141.188H0V4.68634Z" fill="white"/>
</mask>
<g mask="url(#mask1_22424_9165)">
<path fill-rule="evenodd" clip-rule="evenodd" d="M80.6722 109.48C80.7239 109.679 80.7977 109.869 80.8899 110.052C81.2109 110.692 81.805 111.511 81.9803 111.88C82.8401 113.685 83.8161 115.454 84.6279 117.279C84.7645 117.585 84.8715 118.105 85.0209 118.554C85.1039 118.814 85.2183 119.061 85.3641 119.293C78.7552 122.384 72.1537 125.491 65.4656 128.397C59.7312 130.889 53.9785 133.264 48.2718 135.83C46.4213 136.664 44.5633 137.469 42.7276 138.332C42.0892 138.633 41.4932 139.031 40.8733 139.375C40.6925 139.476 40.2663 139.592 40.0633 139.69C39.9453 139.745 39.8456 139.823 39.7663 139.924C39.639 140.087 39.6187 140.262 39.6999 140.45C39.7737 140.629 39.9028 140.742 40.0892 140.788C40.2036 140.823 40.3161 140.819 40.4268 140.775C40.5394 140.732 40.6242 140.659 40.6851 140.555C40.9194 140.474 41.1464 140.38 41.3715 140.275C41.9692 139.941 42.5449 139.555 43.1648 139.264C44.9951 138.402 46.8475 137.598 48.6925 136.769C54.3954 134.205 60.1427 131.83 65.8752 129.339C77.96 124.089 89.7645 118.181 101.847 112.899C104.515 111.731 107.087 110.314 109.801 109.258C112.632 108.159 115.587 107.358 118.405 106.255C122.589 104.618 126.737 102.893 130.918 101.244C131.886 100.862 132.847 100.448 133.835 100.12C134.18 100.03 134.512 99.9077 134.835 99.7565C135.049 99.6402 135.159 99.4613 135.169 99.2177C135.169 99.1089 135.137 99.0111 135.074 98.9207C135.012 98.8321 134.929 98.7694 134.825 98.7325C134.722 98.6974 134.619 98.6937 134.514 98.7232C134.408 98.7528 134.322 98.81 134.253 98.8948L133.51 99.1439C132.504 99.4797 131.526 99.8985 130.538 100.286C126.359 101.935 122.213 103.661 118.028 105.297C115.211 106.399 112.255 107.201 109.427 108.301C106.7 109.36 104.115 110.782 101.434 111.956C96.3604 114.173 91.3346 116.502 86.318 118.847C86.2995 118.821 86.2792 118.795 86.2571 118.773C86.091 118.541 85.9803 118.284 85.9268 118.006C85.8253 117.616 85.7054 117.236 85.5652 116.86C84.7497 115.028 83.77 113.251 82.9084 111.439C82.7534 111.114 82.2847 110.45 81.949 109.854C81.8585 109.699 81.7774 109.537 81.7091 109.371C81.687 109.312 81.6704 109.251 81.6556 109.188C81.6593 109.149 81.6593 109.113 81.6537 109.074C89.7884 105.731 97.9619 102.513 105.844 98.5756C110.871 96.0627 116.202 94.5849 121.36 92.4133C123.084 91.6882 124.916 91.1365 126.589 90.3007C127.169 90.0111 127.805 89.8173 128.401 89.5627C128.545 89.4926 128.68 89.4059 128.805 89.3063C128.857 89.2657 128.925 89.2159 128.988 89.1697C129.012 89.1734 129.036 89.1753 129.06 89.1753C129.128 89.1753 129.192 89.1624 129.255 89.1347C129.318 89.1089 129.375 89.072 129.423 89.024C129.471 88.976 129.508 88.9207 129.534 88.8579C129.56 88.7952 129.573 88.7288 129.573 88.6605C129.582 88.4797 129.519 88.3284 129.384 88.2066C129.277 88.1052 129.148 88.0535 128.999 88.0553C128.818 88.0701 128.656 88.131 128.51 88.2399C128.347 88.3782 128.176 88.5037 127.995 88.6181C127.381 88.8801 126.726 89.0812 126.128 89.3801C124.475 90.2066 122.665 90.7491 120.96 91.4668C115.781 93.6458 110.43 95.1328 105.383 97.6568C95.4969 102.596 85.1501 106.399 75.0043 110.744C67.1704 114.1 59.4526 117.762 51.5799 121.022C47.9729 122.518 44.2645 123.978 40.7331 125.646C39.3198 126.312 37.8696 127.004 36.5117 127.779C36.3973 127.843 35.4176 128.386 35.3216 128.439C35.2829 128.454 35.246 128.472 35.2128 128.496C35.1574 128.535 35.1113 128.583 35.0744 128.64C35.0375 128.697 35.0117 128.76 35.0006 128.827C34.9877 128.895 34.9895 128.961 35.0043 129.028C35.0172 129.094 35.0449 129.155 35.0836 129.212C35.1648 129.315 35.2681 129.382 35.3973 129.411C35.5264 129.441 35.6482 129.426 35.7663 129.365C35.96 129.271 36.8954 128.742 37.0209 128.672C38.3567 127.908 39.7829 127.231 41.1722 126.574C44.6888 124.915 48.3825 123.461 51.9748 121.972C59.8512 118.708 67.5726 115.044 75.4084 111.688C77.1593 110.939 78.9139 110.203 80.6722 109.48ZM35.925 128.62C35.8383 128.489 35.7165 128.419 35.5597 128.408C35.7128 128.423 35.8364 128.494 35.925 128.62L35.9305 128.625C35.9287 128.624 35.9268 128.622 35.925 128.62ZM124.148 76.2029C123.98 76.2528 123.261 76.4686 123.207 76.4871C121.954 76.9483 120.772 77.5959 119.515 78.0498C116.975 78.9631 114.462 80.2675 112.028 81.441C109.595 82.6162 106.98 83.4059 104.525 84.5332C91.2036 90.6476 77.5264 95.8081 63.9729 101.349C58.7829 103.47 53.7165 105.867 48.4692 107.856C43.8253 109.614 39.3456 111.614 34.7755 113.517C33.698 113.965 32.6796 114.494 31.58 114.886C31.2017 115.018 30.8364 115.177 30.4822 115.363C30.353 115.458 30.2792 115.581 30.2571 115.74C30.2442 115.847 30.2626 115.95 30.3143 116.046C30.3659 116.142 30.4397 116.214 30.5375 116.264C30.6353 116.312 30.7386 116.328 30.8475 116.31C30.9545 116.293 31.0486 116.247 31.1261 116.172C31.3493 116.057 31.8493 115.882 31.9268 115.854C33.043 115.456 34.0763 114.921 35.1722 114.465C39.7312 112.566 44.2017 110.574 48.8327 108.817C54.091 106.825 59.1648 104.426 64.3622 102.301C77.9287 96.7528 91.6205 91.5867 104.954 85.4668C107.418 84.3358 110.038 83.5443 112.477 82.3653C114.879 81.2085 117.359 79.9188 119.864 79.0166C121.124 78.5627 122.309 77.9133 123.563 77.452C123.938 77.3616 124.305 77.2435 124.663 77.0996C124.776 77.0498 124.866 76.9742 124.934 76.8745C125.004 76.7731 125.043 76.6624 125.05 76.5406C125.05 76.4336 125.019 76.3358 124.958 76.2472C124.897 76.1605 124.818 76.0978 124.716 76.059C124.617 76.0221 124.515 76.0148 124.41 76.0424C124.307 76.0683 124.22 76.1218 124.15 76.2011L124.148 76.2029ZM31.2626 115.943C31.2663 115.93 31.27 115.917 31.2718 115.904C31.2737 115.893 31.2755 115.88 31.2774 115.869C31.2737 115.893 31.27 115.919 31.2626 115.943ZM27.9932 95.917L15.9988 100.965L13.1113 99.0443L9.82534 90.3376L15.7257 87.7546L27.9932 95.917ZM51.7091 85.9354L39.7146 90.9834L26.2681 82.0369L37.949 76.7786L51.7091 85.9354ZM128.543 88.6882L128.552 88.7601C128.549 88.7362 128.545 88.7122 128.543 88.6882ZM128.543 88.6863V88.6605C128.543 88.6697 128.543 88.6771 128.543 88.6863ZM7.51722 70.5148L25.7257 76.0683L20.9416 80.1384L21.0135 80.3044L16.246 84.5166L2.86777 80.4354L0.161133 76.607L7.51722 70.5148ZM75.425 75.9539L63.4305 81.0018L49.3641 71.6402L61.043 66.3838L75.425 75.9539ZM124.021 76.5148C124.021 76.5184 124.021 76.524 124.021 76.5277V76.5406V76.5148ZM99.1408 65.9723L87.1464 71.0203L72.46 61.2454L84.139 55.9889L99.1408 65.9723ZM45.1279 59.5664L35.3161 67.9114L17.2958 62.4151L27.3032 54.1291L45.1279 59.5664ZM122.857 55.9908L110.862 61.0387L95.5541 50.8506L107.233 45.5941L122.857 55.9908ZM64.532 43.0646L54.7183 51.4096L37.0818 46.0295L47.0873 37.7435L64.532 43.0646ZM83.9342 26.5627L74.1205 34.9077L56.8678 29.6439L66.8733 21.3579L83.9342 26.5627ZM93.5246 18.4059L76.6519 13.2583L86.6574 4.97232L100.862 9.30627L102.353 10.8967L93.5246 18.4059Z" fill="#BDCBDD"/>
</g>
<path fill-rule="evenodd" clip-rule="evenodd" d="M58.0659 124.287C58.0473 124.271 58.0306 124.254 58.0157 124.238C57.9748 124.188 57.9395 124.139 57.906 124.086C57.7963 123.897 57.6643 123.727 57.5081 123.573C57.3463 123.429 57.1548 123.368 56.9373 123.392C56.7253 123.421 56.5487 123.513 56.4036 123.668C55.7231 124.34 55.1318 125.781 54.3899 126.883C54.0013 127.46 53.5866 127.956 53.0214 128.031C52.9991 128.033 52.9861 128.011 52.9675 127.994C52.9321 127.959 52.9024 127.923 52.8745 127.883C52.7778 127.727 52.7034 127.564 52.6495 127.39C52.5008 126.907 52.4152 126.413 52.3966 125.909C52.3948 125.838 52.3966 125.752 52.4004 125.704C52.4431 125.611 52.4543 125.512 52.4357 125.411C52.4189 125.311 52.3725 125.223 52.2999 125.148C52.2293 125.074 52.1419 125.025 52.0396 125.003C51.9374 124.981 51.8388 124.988 51.7403 125.025C51.5599 125.093 51.4465 125.219 51.4019 125.404C51.3517 125.686 51.3442 125.97 51.3795 126.255C51.4428 126.995 51.6808 128.042 52.101 128.569C52.2181 128.739 52.3725 128.867 52.5621 128.952C52.7518 129.038 52.9507 129.067 53.1571 129.043C53.9901 128.933 54.6781 128.3 55.2545 127.447C55.8979 126.491 56.4018 125.252 56.98 124.564C57.0526 124.672 57.1399 124.798 57.2087 124.88C57.3166 125.027 57.4523 125.137 57.6178 125.213C57.7833 125.29 57.9581 125.32 58.1403 125.307C58.6795 125.241 59.1592 125.04 59.5776 124.699C59.9309 124.432 60.2526 124.104 60.5761 123.822C60.6263 123.776 60.6654 123.723 60.6951 123.663C60.723 123.603 60.7397 123.538 60.7435 123.473C60.7472 123.405 60.736 123.341 60.7137 123.277C60.6914 123.214 60.6579 123.158 60.6133 123.108C60.5668 123.057 60.5147 123.019 60.4534 122.989C60.392 122.96 60.3288 122.942 60.26 122.938C60.1931 122.933 60.1261 122.942 60.0611 122.962C59.9978 122.984 59.9402 123.017 59.8881 123.059C59.5813 123.326 59.2801 123.637 58.9454 123.89C58.6907 124.104 58.3969 124.236 58.0659 124.287ZM52.3539 125.788C52.3241 125.83 52.2888 125.867 52.2497 125.898C52.207 125.931 52.1605 125.957 52.1103 125.975C52.2163 125.942 52.2962 125.88 52.3539 125.788ZM64.5069 122.061C64.5608 122.021 64.6779 121.933 64.7802 121.869C65.1948 121.622 65.6262 121.408 66.0743 121.226C66.1413 121.206 66.2008 121.175 66.2547 121.131C66.3068 121.085 66.3495 121.034 66.3811 120.972C66.4127 120.912 66.4313 120.847 66.4369 120.78C66.4406 120.71 66.4332 120.644 66.4109 120.58C66.3886 120.514 66.3551 120.456 66.3086 120.404C66.264 120.353 66.2101 120.313 66.1469 120.284C66.0855 120.253 66.0186 120.236 65.9498 120.232C65.8791 120.229 65.8122 120.238 65.7471 120.26C65.4961 120.342 64.2763 120.906 63.8263 121.289C63.7166 121.371 63.6311 121.472 63.5753 121.596C63.5177 121.721 63.4954 121.849 63.5065 121.984C63.527 122.1 63.5809 122.195 63.6683 122.274C63.7557 122.352 63.8579 122.394 63.9751 122.403C64.0941 122.413 64.2019 122.385 64.3005 122.323C64.399 122.259 64.4678 122.171 64.5069 122.061ZM57.2961 99.2902L56.9856 99.0943C56.7699 98.9643 56.5375 98.924 56.2883 98.9698C55.9834 99.0485 55.7454 99.2169 55.5743 99.4787L55.4033 99.7112C55.3772 99.6911 55.3512 99.6691 55.3326 99.6508C55.2545 99.5757 55.1708 99.5062 55.0835 99.4421C54.9273 99.3103 54.7469 99.2353 54.5405 99.2206C54.336 99.2041 54.1445 99.2481 53.9678 99.3542C53.6499 99.5208 53.2668 100.032 52.8968 100.513C52.841 100.586 52.7852 100.659 52.7276 100.727C52.7332 100.645 52.7388 100.564 52.7443 100.498C52.7797 100.238 52.7667 99.9821 52.7016 99.7277C52.6662 99.6197 52.6049 99.53 52.5175 99.4568C52.4301 99.3835 52.3297 99.3378 52.2163 99.3213C51.9522 99.2993 51.7403 99.3945 51.5804 99.6032C51.294 99.9986 51.0356 100.411 50.8013 100.837C50.4554 101.34 49.7656 102.417 48.9809 103.092C48.7783 103.277 48.5495 103.424 48.2948 103.528C48.1368 103.599 47.9731 103.607 47.8077 103.555C47.6533 103.501 47.6347 103.341 47.6161 103.177C47.5957 102.81 47.618 102.448 47.6812 102.087C47.75 101.727 47.7593 101.366 47.7147 101.004C47.6682 100.769 47.538 100.597 47.3223 100.489C47.1996 100.438 47.0732 100.429 46.943 100.465C46.8147 100.5 46.7106 100.572 46.6307 100.678C46.3555 101.015 45.1803 102.82 45.0706 102.966C44.6095 103.588 43.3656 105.146 42.2053 105.679C41.9654 105.822 41.707 105.86 41.4336 105.794C41.1901 105.708 41.0097 105.463 40.8554 105.055C40.5839 104.344 40.7884 103.526 40.7884 102.794C40.7959 102.724 40.7903 102.657 40.7698 102.589C40.7513 102.521 40.7196 102.461 40.675 102.406C40.6323 102.349 40.5802 102.305 40.517 102.269C40.4556 102.234 40.3905 102.212 40.3199 102.201C40.212 102.184 40.1098 102.201 40.0131 102.25C39.9164 102.3 39.8439 102.371 39.7937 102.466C39.736 102.593 39.6914 102.723 39.6598 102.858C39.5817 103.151 39.4794 103.61 39.4032 103.821C39.1261 104.557 38.8026 105.269 38.4307 105.963C37.5066 107.705 36.4282 109.802 34.8923 111.07C34.8421 111.114 34.7993 111.165 34.7696 111.226C34.738 111.284 34.7212 111.348 34.7157 111.414C34.7101 111.482 34.7175 111.546 34.738 111.61C34.7584 111.674 34.7919 111.733 34.8347 111.784C34.8793 111.835 34.9313 111.876 34.9909 111.907C35.0504 111.938 35.1154 111.956 35.1824 111.964C35.2512 111.969 35.3162 111.964 35.3813 111.943C35.4464 111.925 35.5059 111.894 35.5598 111.852C37.1924 110.503 38.3675 108.288 39.3493 106.435C39.5315 106.091 39.7081 105.739 39.8718 105.381L39.8848 105.414C40.1823 106.193 40.6174 106.589 41.0822 106.755C41.6252 106.918 42.1458 106.869 42.6441 106.603C43.9568 106.001 45.3886 104.269 45.9092 103.566C45.9576 103.502 46.2606 103.056 46.5842 102.578C46.5377 102.979 46.5749 103.371 46.6939 103.757C46.8222 104.13 47.0769 104.383 47.4544 104.513C48.1684 104.769 48.9549 104.467 49.6633 103.859C50.5205 103.123 51.2847 101.956 51.6622 101.406L51.677 101.381C51.6901 101.511 51.7254 101.633 51.7868 101.751C51.8965 101.952 52.0675 102.064 52.2999 102.082C52.7053 102.086 53.0363 101.935 53.2966 101.63C53.5922 101.297 53.8711 100.951 54.1314 100.59C54.2188 100.46 54.3267 100.346 54.455 100.253C54.4773 100.27 54.5163 100.297 54.5387 100.315C54.6223 100.39 54.7041 100.469 54.7897 100.537C55.0072 100.725 55.2601 100.808 55.5483 100.782C55.8012 100.746 56.0057 100.627 56.16 100.425C56.24 100.328 56.3181 100.209 56.3999 100.096C56.4278 100.059 56.4575 100.024 56.4892 99.9913C56.5133 100.004 56.5412 100.021 56.5598 100.033C56.6286 100.081 56.7011 100.13 56.7718 100.171C56.9131 100.266 57.0693 100.317 57.2404 100.326C57.4114 100.335 57.5732 100.301 57.7238 100.22C58.2165 99.9474 58.6219 99.5794 58.9417 99.1199C59.1704 98.7739 59.4493 98.4755 59.7784 98.2193C59.8361 98.1826 59.8844 98.1351 59.9216 98.0801C59.9606 98.0234 59.9867 97.9611 59.9997 97.8952C60.0127 97.8293 60.0127 97.7634 59.9997 97.6957C59.9867 97.6298 59.9606 97.5694 59.9216 97.5126C59.8844 97.4559 59.8361 97.4101 59.7784 97.3717C59.7226 97.3351 59.6594 97.3094 59.5925 97.2966C59.5255 97.282 59.4568 97.282 59.3898 97.2948C59.3229 97.3094 59.2597 97.3351 59.2039 97.3717C58.7799 97.6884 58.4173 98.0637 58.118 98.4975C57.9023 98.8197 57.629 99.0851 57.2961 99.2902ZM73.0154 104.661C72.9894 104.601 72.969 104.539 72.9504 104.474C72.8927 104.246 72.8518 104.004 72.7942 103.834C72.7272 103.598 72.5822 103.427 72.3572 103.323C72.1453 103.237 71.9444 103.255 71.7511 103.378C71.381 103.625 71.0668 103.929 70.8102 104.288C70.4011 104.809 69.9698 105.468 69.5216 105.998C69.332 106.237 69.1144 106.444 68.8653 106.62C68.75 106.711 68.618 106.754 68.4692 106.746C68.4599 106.726 68.4506 106.708 68.4451 106.686C68.4265 106.622 68.4153 106.558 68.4097 106.492C68.3874 106.278 68.3967 106.051 68.3874 105.868C68.3874 105.661 68.3372 105.465 68.2368 105.284C68.1438 105.139 68.0137 105.049 67.8426 105.014C67.6251 104.974 67.4261 105.02 67.2476 105.154C66.9315 105.368 66.4964 105.988 66.3941 106.109C66.0539 106.508 64.8527 108.257 63.7891 108.978C63.6664 109.066 63.5325 109.135 63.3894 109.186C63.328 109.212 63.2666 109.219 63.2016 109.21C63.1402 109.194 63.0993 109.137 63.0528 109.064C62.9803 108.928 62.9264 108.787 62.8948 108.639C62.8297 108.381 62.9636 108.099 63.0361 107.835C63.1346 107.548 63.1569 107.253 63.1049 106.955C63.0881 106.889 63.0584 106.83 63.0175 106.777C62.9766 106.724 62.9264 106.68 62.8687 106.647C62.8111 106.613 62.7479 106.591 62.6809 106.582C62.614 106.571 62.5471 106.574 62.482 106.591C62.415 106.605 62.3555 106.633 62.2998 106.673C62.2458 106.711 62.1994 106.759 62.164 106.816C62.1287 106.873 62.1045 106.935 62.0934 107.001C62.0822 107.067 62.0841 107.131 62.0989 107.197C62.1045 107.385 62.0673 107.565 61.9874 107.737C61.8535 108.108 61.82 108.491 61.8851 108.881C62.0952 109.723 62.5099 110.085 62.9357 110.195C63.3503 110.303 63.8579 110.17 64.3748 109.82C65.5165 109.047 66.8237 107.191 67.1881 106.765L67.3741 106.543C67.3852 106.739 67.428 106.929 67.4968 107.112C67.5563 107.275 67.653 107.414 67.7868 107.528C67.9207 107.64 68.075 107.713 68.248 107.744C68.592 107.808 68.9173 107.757 69.2241 107.592C69.6518 107.35 70.0144 107.037 70.3156 106.653C70.773 106.115 71.2118 105.443 71.6283 104.914C71.725 104.791 71.8161 104.678 71.9072 104.577C71.924 104.648 71.9426 104.718 71.9575 104.777C72.1118 105.342 72.4502 105.734 72.9783 105.706C73.3594 105.653 73.696 105.5 73.9861 105.249C74.6108 104.771 75.3676 103.909 76.0797 103.35C76.2694 103.189 76.4795 103.061 76.7119 102.966C76.7807 102.935 76.8532 102.924 76.9295 102.937C77.0001 102.964 77.0522 103.01 77.0894 103.074C77.1284 103.127 77.1786 103.171 77.2363 103.206C77.2939 103.241 77.3571 103.263 77.4241 103.274C77.491 103.283 77.5579 103.281 77.6249 103.266C77.69 103.25 77.7513 103.222 77.8071 103.184C77.861 103.145 77.9075 103.098 77.9428 103.041C77.98 102.984 78.0042 102.924 78.0154 102.858C78.0265 102.792 78.0265 102.726 78.0116 102.66C77.9968 102.596 77.9707 102.536 77.9317 102.481C77.3032 101.615 76.3921 101.802 75.4327 102.554C74.8172 103.037 74.1683 103.742 73.5993 104.24C73.4543 104.37 73.2999 104.487 73.1344 104.593C73.0973 104.619 73.0564 104.641 73.0154 104.661ZM97.3698 107.804V107.795C97.3698 107.727 97.3568 107.662 97.3307 107.599C97.3028 107.537 97.2657 107.482 97.2173 107.435C97.169 107.385 97.1132 107.349 97.05 107.323C96.9868 107.297 96.9198 107.284 96.851 107.284C96.7078 107.283 96.5851 107.332 96.4847 107.433C96.3508 107.572 96.3025 107.735 96.3378 107.922C96.4141 108.357 96.5795 108.756 96.8343 109.121C96.9589 109.309 97.1225 109.454 97.3252 109.556C97.5278 109.657 97.7435 109.705 97.9704 109.694C98.3199 109.655 98.623 109.521 98.8833 109.289C99.4467 108.831 99.9915 107.658 100.588 106.722C100.737 106.475 100.91 106.246 101.109 106.036C101.182 105.959 101.261 105.893 101.351 105.836C101.371 105.869 101.39 105.904 101.405 105.935C101.477 106.087 101.55 106.263 101.632 106.431C101.866 106.918 102.2 107.33 102.667 107.438C102.941 107.497 103.206 107.473 103.465 107.363C104.763 106.862 105.921 105.507 106.868 104.548C107.005 104.409 107.275 104.035 107.556 103.759L107.574 103.742C107.682 103.958 107.801 104.169 107.931 104.374C107.974 104.427 108.026 104.469 108.085 104.502C108.147 104.535 108.21 104.555 108.279 104.562C108.348 104.57 108.415 104.564 108.48 104.546C108.547 104.526 108.606 104.496 108.66 104.454C108.714 104.41 108.757 104.361 108.79 104.301C108.824 104.242 108.844 104.18 108.852 104.112C108.859 104.044 108.853 103.978 108.835 103.914C108.814 103.848 108.785 103.79 108.742 103.737C108.643 103.618 108.422 103.069 108.26 102.854C108.136 102.671 107.961 102.572 107.736 102.561C107.451 102.582 107.206 102.688 106.996 102.878C106.685 103.18 106.395 103.501 106.124 103.837C105.27 104.701 104.257 105.961 103.086 106.413C103.026 106.446 102.961 106.455 102.892 106.441C102.827 106.408 102.777 106.36 102.742 106.298C102.623 106.115 102.522 105.921 102.442 105.719C102.344 105.465 102.208 105.231 102.035 105.018C101.942 104.912 101.829 104.837 101.693 104.793C101.559 104.749 101.421 104.744 101.284 104.777C100.711 104.901 100.172 105.454 99.7108 106.181C99.3724 106.713 99.0563 107.332 98.7439 107.837C98.6063 108.084 98.4334 108.306 98.2251 108.502C98.0857 108.615 97.9778 108.683 97.8755 108.676C97.7324 108.663 97.6617 108.515 97.5873 108.388C97.4925 108.203 97.42 108.008 97.3698 107.804ZM97.3047 108.042C97.2062 108.216 97.0537 108.304 96.851 108.304C96.9458 108.31 97.0351 108.289 97.1188 108.242C97.2006 108.194 97.2638 108.128 97.3047 108.042ZM112.448 100.868C112.55 101.375 112.741 101.743 113.054 101.939C113.359 102.115 113.684 102.161 114.026 102.078C114.095 102.065 114.156 102.042 114.214 102.003C114.272 101.967 114.32 101.921 114.359 101.866C114.398 101.811 114.426 101.749 114.439 101.683C114.454 101.617 114.456 101.551 114.443 101.485C114.432 101.417 114.406 101.357 114.368 101.3C114.331 101.243 114.285 101.196 114.229 101.157C114.173 101.119 114.11 101.091 114.043 101.077C113.976 101.064 113.909 101.062 113.842 101.073C113.738 101.093 113.664 101.11 113.61 101.077C113.573 101.053 113.561 101.005 113.543 100.958C113.507 100.863 113.481 100.767 113.465 100.669C113.452 100.603 113.426 100.54 113.387 100.486C113.349 100.429 113.301 100.381 113.243 100.345C113.188 100.306 113.124 100.282 113.057 100.268C112.991 100.255 112.922 100.255 112.855 100.268C112.788 100.282 112.725 100.306 112.669 100.345C112.611 100.381 112.563 100.429 112.526 100.486C112.487 100.54 112.461 100.603 112.448 100.669C112.435 100.735 112.435 100.8 112.448 100.868ZM84.3392 100.083C84.3094 100.065 84.2462 100.022 84.2109 99.995C84.1197 99.9236 84.0324 99.8485 83.9431 99.7918C83.7107 99.6233 83.4541 99.5757 83.1752 99.6471C82.8052 99.7625 82.4928 99.9657 82.238 100.255C81.9684 100.537 81.7453 100.892 81.4292 101.07C81.3697 101.102 81.3195 101.146 81.2786 101.199C81.2377 101.253 81.2098 101.313 81.1912 101.377C81.1745 101.441 81.1689 101.507 81.1782 101.573C81.1875 101.639 81.2079 101.701 81.2414 101.76C81.2749 101.818 81.3195 101.868 81.3716 101.908C81.4255 101.95 81.485 101.979 81.5501 101.998C81.6151 102.016 81.6821 102.021 81.749 102.014C81.8178 102.007 81.881 101.988 81.9405 101.956C82.2938 101.721 82.5988 101.437 82.8554 101.104C82.9948 100.914 83.1696 100.764 83.3797 100.654C83.4429 100.703 83.5917 100.815 83.6791 100.881C83.8167 100.994 83.9747 101.068 84.1532 101.099C84.3317 101.128 84.5046 101.112 84.6738 101.049C85.1722 100.832 85.5998 100.519 85.955 100.11C86.232 99.7881 86.5425 99.5025 86.8884 99.2536C87.6452 98.7831 88.3257 98.8289 89.1457 98.6495C89.2126 98.6348 89.274 98.6092 89.3298 98.5689C89.3856 98.5305 89.432 98.4829 89.4692 98.4261C89.5046 98.3694 89.5306 98.3071 89.5417 98.2412C89.5529 98.1735 89.551 98.1076 89.5362 98.0417C89.5213 97.9758 89.4953 97.9154 89.4562 97.8605C89.4172 97.8055 89.367 97.7598 89.3093 97.7232C89.2517 97.6866 89.1885 97.6628 89.1215 97.6518C89.0546 97.639 88.9876 97.6408 88.9207 97.6554C87.978 97.8605 87.2045 97.8495 86.3343 98.3895C85.9178 98.6842 85.5422 99.0229 85.2056 99.4037C84.9658 99.6911 84.6776 99.9162 84.3392 100.085V100.083ZM118.519 100.35C118.628 100.363 118.73 100.341 118.827 100.29C118.924 100.237 118.995 100.162 119.043 100.065C119.089 99.9657 119.104 99.865 119.086 99.757C119.067 99.6508 119.019 99.5593 118.941 99.4842C118.853 99.389 118.744 99.3304 118.613 99.3121C118.483 99.2938 118.362 99.3176 118.251 99.3835C118.137 99.4366 118.056 99.5208 118.003 99.6325C117.951 99.7442 117.942 99.8595 117.976 99.9766C118.009 100.096 118.076 100.191 118.18 100.26C118.282 100.332 118.396 100.361 118.52 100.35H118.519ZM118.228 100.224C118.266 100.259 118.308 100.288 118.355 100.31C118.396 100.33 118.44 100.343 118.487 100.346C118.388 100.33 118.303 100.29 118.228 100.224ZM70.8455 94.4995C70.8251 94.4336 70.8046 94.3603 70.7935 94.3017C70.747 94.0802 70.7135 93.8478 70.6652 93.6702C70.6113 93.3864 70.4551 93.1778 70.1947 93.0459C70.0181 92.9746 69.8452 92.98 69.6741 93.0643C69.3506 93.2253 69.0866 93.4523 68.8839 93.7452C68.6068 94.1553 68.3595 94.58 68.142 95.023C67.9969 95.3177 67.8129 95.5887 67.5897 95.8321C67.4521 95.9896 67.2792 96.0683 67.0672 96.0683C66.9371 96.0646 66.8702 95.9511 66.8088 95.8431C66.6972 95.6271 66.621 95.3983 66.5801 95.1585L66.5355 94.8821C66.5764 94.7612 66.5708 94.6422 66.5206 94.5269C66.4704 94.4098 66.3886 94.3219 66.2733 94.267C66.1636 94.212 66.0502 94.1974 65.9312 94.2194C65.8122 94.2432 65.7118 94.2999 65.6318 94.3896C65.5314 94.5086 65.4849 94.6459 65.4868 94.7997C65.4998 94.9882 65.524 95.175 65.563 95.3598C65.6374 95.79 65.7973 96.1873 66.0427 96.5497C66.1543 96.7127 66.2993 96.8408 66.4741 96.9342C66.6489 97.0294 66.8367 97.0806 67.0356 97.0861C67.8147 97.1117 68.367 96.6303 68.8021 95.942C69.0512 95.5466 69.2651 95.0816 69.5031 94.6789C69.5756 94.5525 69.6537 94.4299 69.7411 94.3127C69.7615 94.4299 69.7838 94.5471 69.8117 94.6587C69.9716 95.3287 70.377 95.704 70.9311 95.5539C71.7325 95.3342 72.255 94.6368 72.7403 93.8954C73.0545 93.4121 73.3408 92.8995 73.8131 92.6725C73.8354 92.7018 73.8578 92.7347 73.8745 92.7622C73.9619 92.905 74.0493 93.0643 74.1478 93.207C74.4546 93.6482 74.8581 93.9301 75.4382 93.7873C76.3624 93.5604 76.7621 92.9709 77.0392 92.2954C77.2251 91.8487 77.3199 91.3471 77.6342 91.003C77.6937 91.0103 77.8183 91.0268 77.8964 91.0378C78.1474 91.0945 78.3984 91.089 78.6476 91.0176C79.7483 90.6314 80.7431 89.9138 81.8792 89.6355C81.9461 89.6209 82.0093 89.5916 82.0651 89.5531C82.1209 89.5129 82.1674 89.4634 82.2046 89.4049C82.2399 89.3463 82.2641 89.284 82.2752 89.2163C82.2845 89.1486 82.2827 89.0808 82.2641 89.0149C82.2473 88.949 82.2194 88.8886 82.1767 88.8337C82.1358 88.7788 82.0856 88.733 82.0242 88.6982C81.9647 88.6635 81.8996 88.6415 81.8308 88.6323C81.762 88.6232 81.6951 88.6287 81.6282 88.647C80.4586 88.9344 79.4304 89.6593 78.298 90.0584C78.2385 90.0657 78.179 90.062 78.1213 90.0419C78.0098 90.0236 77.8982 90.0016 77.7922 89.9907C77.4687 89.9321 77.1861 90.0145 76.9462 90.236C76.5929 90.6387 76.3438 91.0963 76.1969 91.6089C76.0109 92.1068 75.8547 92.6341 75.1872 92.7988C75.1482 92.808 75.1259 92.7787 75.1035 92.7549C75.0589 92.7073 75.0199 92.656 74.9845 92.6011C74.8581 92.4107 74.7484 92.1984 74.6331 92.0409C74.3579 91.6657 74.0214 91.5192 73.6291 91.6492C72.8518 91.9018 72.3461 92.6139 71.8682 93.348C71.567 93.8038 71.2937 94.2853 70.8455 94.4995ZM101.206 93.3077C101.163 93.2931 101.033 93.2473 100.958 93.2199C100.739 93.1283 100.512 93.1045 100.276 93.1485C99.7052 93.2784 99.2441 93.7599 98.8461 94.1516C98.7773 94.2194 98.6212 94.3969 98.517 94.5159C98.3701 94.5763 98.2716 94.6825 98.2232 94.8345C98.173 94.9534 98.1675 95.0724 98.2102 95.1951C98.2549 95.3177 98.333 95.4093 98.4482 95.4715C98.6026 95.5685 98.7625 95.5795 98.9298 95.5045C99.0172 95.4642 99.0953 95.4093 99.1622 95.3397C99.2757 95.2262 99.4765 94.9736 99.5787 94.8711C99.7368 94.7173 99.9023 94.5379 100.085 94.3841C100.203 94.2743 100.339 94.1937 100.495 94.1461C100.514 94.1498 100.577 94.1681 100.611 94.1809C100.67 94.2029 100.73 94.2267 100.789 94.2487C101.02 94.3439 101.256 94.3567 101.498 94.2871C102.673 93.9008 103.708 92.9855 104.958 92.5755C105.023 92.5535 105.081 92.5206 105.133 92.4766C105.185 92.4327 105.228 92.3796 105.257 92.3192C105.289 92.2588 105.306 92.1947 105.311 92.127C105.315 92.0592 105.308 91.9933 105.285 91.9293C105.265 91.8652 105.231 91.8085 105.185 91.7572C105.14 91.7059 105.086 91.6657 105.025 91.6345C104.964 91.6053 104.898 91.587 104.83 91.5833C104.763 91.5778 104.696 91.5851 104.629 91.6071C103.392 92.0135 102.366 92.916 101.206 93.3077ZM65.9758 95.2299C65.9479 95.2262 65.92 95.2207 65.894 95.2116C65.8661 95.2042 65.8382 95.1933 65.8122 95.1804C65.8642 95.2061 65.92 95.2225 65.9758 95.2299ZM110.352 89.0424C110.265 89.0406 110.181 89.0607 110.103 89.101C110.027 89.1413 109.963 89.198 109.915 89.2712C109.867 89.3426 109.839 89.4213 109.83 89.5074C109.822 89.5934 109.837 89.6758 109.872 89.7563C109.936 89.9138 110.045 90.0254 110.205 90.0895C110.32 90.1389 110.439 90.1499 110.562 90.1225C110.743 90.073 110.893 89.9797 111.018 89.8424C111.103 89.7563 111.2 89.641 111.295 89.5367C111.33 89.4891 111.371 89.447 111.418 89.4122C112.005 89.1046 112.738 89.176 113.379 89.0717C113.446 89.0607 113.507 89.0351 113.565 89.0003C113.623 88.9637 113.669 88.9179 113.708 88.863C113.747 88.8081 113.775 88.7495 113.79 88.6836C113.805 88.6195 113.807 88.5536 113.796 88.4877C113.785 88.4218 113.76 88.3596 113.725 88.3028C113.69 88.2461 113.645 88.1985 113.589 88.16C113.535 88.1198 113.474 88.0923 113.409 88.0758C113.344 88.0594 113.277 88.0575 113.21 88.0667C112.461 88.1893 111.615 88.1546 110.93 88.5134C110.776 88.6049 110.638 88.7202 110.523 88.8557L110.352 89.0424ZM90.8991 84.9931C90.8396 85.0297 90.7894 85.0755 90.7485 85.1322C90.7076 85.1871 90.6797 85.2475 90.6648 85.3134C90.6499 85.3793 90.6462 85.4452 90.6592 85.5111C90.6704 85.5789 90.6927 85.6411 90.7299 85.6979C90.7671 85.7546 90.8117 85.804 90.8675 85.8425C90.9716 85.9157 91.0888 85.9468 91.2152 85.9377C91.3435 85.9285 91.4532 85.8809 91.5462 85.7949C91.6763 85.6869 92.0519 85.2677 92.381 84.9217C92.5205 84.7752 92.712 84.5977 92.7455 84.5684C93.0783 84.4128 93.3256 84.5244 93.5748 84.5647C94.0545 84.6434 94.5416 84.6563 95.1999 84.0082C95.2482 83.9606 95.2854 83.9057 95.3114 83.8435C95.3375 83.7812 95.3505 83.7153 95.3505 83.6494C95.3505 83.5817 95.3375 83.5158 95.3114 83.4535C95.2854 83.3913 95.2482 83.3364 95.1999 83.2888C95.1515 83.2394 95.0957 83.2027 95.0307 83.1771C94.9674 83.1515 94.9024 83.1387 94.8336 83.1387C94.7648 83.1387 94.6978 83.1515 94.6346 83.1771C94.5714 83.2027 94.5156 83.2394 94.4673 83.2888C94.3576 83.4096 94.2256 83.5011 94.0712 83.5579C93.8927 83.5908 93.7161 83.5798 93.5432 83.5231C93.0988 83.4133 92.6711 83.4609 92.2602 83.6641C92.0835 83.7757 91.9236 83.9075 91.7823 84.0613C91.4904 84.356 91.0014 84.8814 90.8991 84.9931ZM91.2115 84.9199C91.2524 84.9235 91.2914 84.9308 91.3305 84.9437C91.3695 84.9565 91.4086 84.9729 91.442 84.9949C91.3732 84.951 91.2951 84.9253 91.2133 84.9199H91.2115Z" fill="white"/>
<mask id="mask2_22424_9165" style="mask-type:luminance" maskUnits="userSpaceOnUse" x="0" y="0" width="141" height="170">
<path d="M0 0H140.491V170H0V0Z" fill="white"/>
</mask>
<g mask="url(#mask2_22424_9165)">
<path fill-rule="evenodd" clip-rule="evenodd" d="M45.3598 167.996C45.3321 167.963 45.1661 167.764 45.1458 167.744C45.0203 167.594 44.8635 167.543 44.6734 167.583C44.5609 167.602 44.4668 167.653 44.3893 167.736C44.2841 167.843 44.238 167.969 44.2509 168.118C44.2583 168.251 44.31 168.364 44.4041 168.458C44.5424 168.629 44.7011 168.779 44.8819 168.908C45.2602 169.092 45.6384 169.277 46.0166 169.461C47.0037 169.943 48.2196 169.788 49.3044 169.777C52.4945 169.747 55.4797 167.937 58.428 166.926C58.4908 166.902 58.548 166.869 58.5978 166.823C58.6495 166.779 58.6882 166.725 58.7177 166.664C58.7472 166.604 58.7638 166.539 58.7675 166.473C58.7712 166.404 58.762 166.34 58.7399 166.275C58.7177 166.212 58.6845 166.153 58.6402 166.104C58.5959 166.052 58.5424 166.013 58.4834 165.982C58.4225 165.952 58.3579 165.936 58.2915 165.93C58.2233 165.925 58.1587 165.934 58.0941 165.954C55.2472 166.932 52.3764 168.722 49.2952 168.749C48.3635 168.758 47.3155 168.952 46.4686 168.537L45.3598 167.996ZM45.2786 168.089C45.2786 168.139 45.2712 168.19 45.2565 168.238C45.2417 168.286 45.2196 168.33 45.1937 168.371C45.2528 168.286 45.2804 168.192 45.2786 168.089ZM60.8469 165.733C64.6771 163.753 68.9613 162.699 73.0535 161.343C79.0258 159.362 84.7546 156.664 90.7066 154.613C95.7011 152.893 100.419 150.316 105.312 148.358C110.441 146.305 115.758 144.847 120.889 142.794C127.234 140.253 133.447 137.485 139.906 135.227C139.969 135.203 140.028 135.17 140.077 135.124C140.129 135.08 140.17 135.026 140.199 134.963C140.229 134.902 140.245 134.838 140.249 134.77C140.253 134.701 140.244 134.635 140.22 134.572C140.197 134.508 140.164 134.449 140.118 134.399C140.074 134.347 140.02 134.308 139.958 134.279C139.897 134.249 139.832 134.233 139.764 134.227C139.696 134.223 139.629 134.234 139.565 134.257C133.092 136.52 126.865 139.294 120.506 141.84C115.375 143.893 110.059 145.353 104.93 147.404C100.054 149.356 95.3506 151.926 90.3727 153.642C84.4244 155.692 78.6974 158.388 72.7306 160.367C68.5886 161.742 64.2546 162.816 60.3764 164.821C60.3155 164.853 60.262 164.895 60.2196 164.947C60.1753 164.998 60.1421 165.057 60.1218 165.122C60.1015 165.187 60.0923 165.255 60.0996 165.321C60.1052 165.389 60.1236 165.454 60.155 165.515C60.1864 165.576 60.2269 165.627 60.2804 165.672C60.3321 165.716 60.3911 165.747 60.4557 165.77C60.5203 165.79 60.5886 165.797 60.655 165.792C60.7233 165.784 60.7878 165.766 60.8487 165.734L60.8469 165.733ZM18.0092 106.572C18.059 106.467 18.072 106.356 18.048 106.244C18.024 106.129 17.9668 106.035 17.8782 105.96C17.738 105.827 17.572 105.779 17.3819 105.819C17.1937 105.853 17.0646 105.958 16.9926 106.135C16.9447 106.255 16.928 106.38 16.9447 106.508C16.9945 106.832 17.0867 107.144 17.2232 107.443C17.4649 107.926 17.655 108.441 17.8635 108.941C18.4686 110.404 19.1236 111.832 19.762 113.279C21.6882 117.642 23.5258 122.044 25.5148 126.38C29.5166 135.105 32.5701 144.262 36.5424 152.995C38.3395 156.945 39.441 161.834 42.2768 165.234C42.3192 165.288 42.3709 165.329 42.4317 165.362C42.4926 165.393 42.5572 165.412 42.6236 165.417C42.6919 165.425 42.7583 165.417 42.8229 165.397C42.8893 165.377 42.9483 165.345 43 165.301C43.0517 165.257 43.0941 165.205 43.1255 165.146C43.1568 165.085 43.1771 165.02 43.1827 164.952C43.1882 164.886 43.1827 164.819 43.1624 164.753C43.1421 164.688 43.1089 164.629 43.0664 164.578C40.2878 161.246 39.2399 156.439 37.4797 152.568C33.5055 143.836 30.4539 134.679 26.4502 125.952C24.4631 121.62 22.6273 117.223 20.703 112.864C20.0683 111.425 19.4151 110.002 18.8137 108.546C18.5978 108.024 18.3967 107.487 18.1439 106.982C18.0904 106.847 18.0443 106.711 18.0092 106.572ZM3.80258 80.7197L15.6476 84.3341C16.8266 83.2603 17.9613 82.0721 19.0535 81.1607C21.107 79.4522 23.107 77.6755 25.0886 75.8747L8.38561 70.7788C7.05904 71.9836 5.73432 73.1828 4.36716 74.3433C3.58303 75.0094 2.84317 75.7622 1.97786 76.3231C1.67528 76.5205 1.37085 76.7714 1.05351 76.943C1.04428 76.9467 0.627306 77.2714 0.627306 77.2714L0 76.3969C0 76.3969 0.516606 76.0537 0.583026 76.0278C0.869004 75.8692 1.14207 75.6385 1.41697 75.4614C2.24539 74.9245 2.95018 74.1976 3.69926 73.5611C6.06089 71.5555 8.30074 69.4319 10.6236 67.3784C17.8229 61.0149 25.7528 55.5666 33.024 49.2622C42.4299 41.1072 52.024 33.1939 61.69 25.3452C66.7269 21.2566 71.9391 17.2197 76.7528 12.8895C80.6365 9.39316 84.6974 5.6367 88.917 2.55183C89.8948 1.83597 90.9557 1.21973 91.8893 0.450357C91.9834 0.372867 92.238 0.0942688 92.238 0.0942688L92.9631 0.865487L92.9594 0.869177L100.862 9.30645L87.2159 5.14224C83.893 7.78062 80.6734 10.7419 77.5683 13.5389L93.1015 18.2769C94.3727 17.2345 95.6421 16.1994 96.9133 15.1736C98.2952 14.0537 99.6495 12.9079 101.028 11.7806C101.411 11.467 102.214 10.7345 102.214 10.7345L102.895 11.4596C102.895 11.4596 102.061 12.2622 101.677 12.5758C100.301 13.7031 98.9428 14.8526 97.5591 15.9725C91.7472 20.6773 85.8856 25.5334 80.3469 30.5555C75.6568 34.8083 70.2546 38.5334 65.2841 42.4559C61.4576 45.478 58.0498 49.0352 54.2823 52.1385C48.5166 56.8895 42.7343 61.5906 37.0535 66.4504C31.6513 71.0703 26.5738 76.0832 21.1845 80.7031L22.3284 83.3618L22.3893 83.3157C23.0867 82.7585 24.0111 82.4135 24.8137 82.0352C27.1384 80.9393 29.4649 79.6515 31.8745 78.764C34.8635 77.6625 37.6753 75.954 40.6033 74.6884C44.7897 72.8766 49.0019 71.1644 53.1919 69.3507C64.9428 64.264 76.5886 59.0629 88.1255 53.5186C91.7196 51.7917 95.4705 50.395 98.9982 48.5297C103.526 46.1367 108.362 44.4079 113.138 42.5961C114.692 42.0076 116.319 41.4596 117.906 40.7751C118.105 40.6902 118.708 40.4264 118.708 40.4264V40.4301L118.718 40.4245L119.079 41.2363L119.161 41.4135H119.159L125 54.5186L125.02 54.5076L125.472 55.5002C125.472 55.5002 124.688 55.8876 124.448 56.002C123.02 56.6791 121.541 57.2677 120.098 57.9153C114.572 60.3895 108.852 62.4042 103.268 64.7419C95.7602 67.8839 88.214 70.9061 80.655 73.919C67.6458 79.1053 54.941 85.1681 41.952 90.4448C37.9557 92.0684 34.1125 94.2585 30.0812 95.7456C27.3137 96.7659 24.1845 97.871 21.5738 99.2216C19.8819 100.096 18.0424 100.655 16.286 101.415C16.1144 101.489 15.2454 102.019 14.7731 102.148C14.548 102.225 14.3284 102.209 14.1162 102.1C14.0572 102.065 14.0074 102.019 13.9668 101.961C13.8967 101.936 13.8358 101.895 13.7823 101.843C13.452 101.45 13.2196 101.004 13.0867 100.508C12.8598 99.8083 12.703 99.0002 12.5387 98.55C11.7288 96.3433 11.0037 94.0149 9.89483 91.9374C9.86347 91.8766 9.84317 91.8138 9.83764 91.7456C9.83026 91.6773 9.83764 91.6109 9.85609 91.5463C9.87638 91.4799 9.90775 91.4208 9.95203 91.3692C9.99447 91.3157 10.0461 91.2732 10.107 91.2419C10.1236 91.2326 10.1402 91.2253 10.1568 91.2179L9.82472 90.3415C9.71587 90.3083 9.62731 90.2474 9.55904 90.157C7.57934 87.5186 5.6107 84.8673 3.65129 82.2013C2.84317 81.1053 1.85609 80.0389 1.16974 78.8636C1.13469 78.8046 1.11255 78.7419 1.10332 78.6736C1.0941 78.6053 1.09779 78.5389 1.11624 78.4725C1.13284 78.4079 1.16236 78.347 1.20295 78.2935C1.24539 78.2382 1.2952 78.1939 1.35424 78.1588C1.41328 78.1256 1.47601 78.1035 1.54428 78.0943C1.6107 78.085 1.67897 78.0887 1.74354 78.1072C1.80996 78.1238 1.87085 78.1533 1.92435 78.1939C1.97971 78.2363 2.02399 78.2861 2.0572 78.3452C2.58118 79.1791 3.16421 79.9707 3.80258 80.7197ZM10.4336 90.0721C10.3782 90.1847 10.2934 90.2659 10.179 90.3175C10.0627 90.3692 9.94465 90.3766 9.82472 90.3397L10.1568 91.2179C10.2786 91.1699 10.4004 91.1681 10.524 91.2123C10.6476 91.2585 10.7399 91.3378 10.8026 91.454C11.9336 93.574 12.6771 95.9467 13.5037 98.1976C13.6236 98.5223 13.7399 99.0315 13.8801 99.5555L15.5351 100.657C15.6974 100.567 15.8247 100.496 15.8782 100.472C17.6125 99.7216 19.4299 99.1736 21.1015 98.3083C23.1845 97.2788 25.3192 96.3747 27.5111 95.5961L15.7251 87.7548L10.4336 90.0721ZM38.214 76.9559C36.2399 77.9411 34.2768 78.9762 32.2306 79.729C30.3321 80.4301 28.4852 81.3821 26.6494 82.2898L39.0886 90.5684C39.9096 90.1921 40.7343 89.8304 41.5646 89.4928C44.7435 88.2013 47.9041 86.8636 51.0572 85.502L38.214 76.9559ZM61.6458 66.7861C58.9686 67.9633 56.2878 69.1349 53.6015 70.2954C52.3303 70.8452 51.059 71.3876 49.786 71.9227L62.6033 80.4522C66.5554 78.7179 70.5111 76.9946 74.4889 75.3304L61.6458 66.7861ZM84.6384 56.3212C80.8026 58.1367 76.9557 59.919 73.0959 61.6699L86.3948 70.5205C90.4576 68.8913 94.5111 67.2474 98.5591 65.585L84.6384 56.3212ZM28.3672 54.454C24.9188 57.2087 21.4022 59.871 17.9502 62.6146L34.2011 67.5721C34.9244 66.9319 35.6513 66.2991 36.3838 65.6699C38.9225 63.5002 41.476 61.3563 44.0461 59.2363L28.3672 54.454ZM107.637 45.8618C104.865 46.9356 102.111 48.0481 99.4797 49.4411C98.334 50.0463 97.1642 50.6035 95.9852 51.1367L110.454 60.7659C113.55 59.5555 116.644 58.336 119.677 56.9762C120.611 56.5574 121.563 56.1644 122.502 55.7548L107.637 45.8618ZM47.9022 37.9928C44.5904 40.7456 41.2971 43.5205 38.0221 46.3175L53.8653 51.1515C57.1162 48.4467 60.1107 45.4171 63.3524 42.705L47.9022 37.9928ZM67.8948 21.6699C66.0387 23.1644 64.1771 24.6496 62.3395 26.1422C60.7971 27.395 59.2565 28.6496 57.7196 29.9042L73.6587 34.7677C75.7251 33.1662 77.7491 31.5242 79.655 29.7972C80.9078 28.6625 82.1734 27.5352 83.4557 26.4171L67.8948 21.6699Z" fill="#334865"/>
</g>
</g>
</svg>
